<svg width="8" height="14" viewBox="0 0 8 14" fill="none" xmlns="http://www.w3.org/2000/svg">
<path d="M7.74911 9.87875C7.58503 9.71471 7.36251 9.62256 7.13049 9.62256C6.89847 9.62256 6.67595 9.71471 6.51186 9.87875L4.88961 11.4998L4.87503 0.875C4.87503 0.642935 4.78284 0.420376 4.61875 0.256281C4.45465 0.0921872 4.23209 0 4.00003 0V0C3.76797 0 3.54541 0.0921872 3.38131 0.256281C3.21722 0.420376 3.12503 0.642935 3.12503 0.875L3.13845 11.4917L1.5267 9.87875C1.36167 9.71936 1.14064 9.63116 0.91122 9.63316C0.681798 9.63515 0.462337 9.72717 0.300105 9.88941C0.137873 10.0516 0.0458499 10.2711 0.0438563 10.5005C0.0418627 10.7299 0.130058 10.951 0.289446 11.116L2.57553 13.4021C2.9584 13.7848 3.47761 13.9999 4.01899 13.9999C4.56037 13.9999 5.07958 13.7848 5.46245 13.4021L7.74911 11.116C7.91315 10.9519 8.0053 10.7294 8.0053 10.4974C8.0053 10.2654 7.91315 10.0428 7.74911 9.87875Z" fill="#F7F2E9"/>
</svg>
