<svg width="14" height="15" viewBox="0 0 14 15" fill="none" xmlns="http://www.w3.org/2000/svg">
<path d="M5.163 10.825C6.18812 11.8501 7.85018 11.8501 8.87533 10.825L8.87535 10.825L10.749 8.95132C11.0966 8.6156 11.1062 8.06167 10.7705 7.71408C10.4348 7.36648 9.88087 7.35686 9.53327 7.69258C9.52597 7.69961 9.51881 7.7068 9.51178 7.71408L7.88835 9.3369L7.87493 1.375C7.87493 0.891754 7.48317 0.5 6.99993 0.5C6.51668 0.5 6.12493 0.891754 6.12493 1.375L6.13718 9.32408L4.5266 7.7135C4.17901 7.37777 3.62508 7.3874 3.28935 7.73499C2.96186 8.07408 2.96186 8.61166 3.28935 8.95075L5.163 10.825Z" fill="#374957"/>
<path d="M13.125 8.95833C12.6418 8.95833 12.25 9.35008 12.25 9.83333V12.5114C12.2497 12.643 12.1431 12.7497 12.0114 12.75H1.98857C1.85694 12.7496 1.7503 12.643 1.75 12.5114V9.83333C1.75 9.35008 1.35825 8.95833 0.875 8.95833C0.391754 8.95833 0 9.35008 0 9.83333V12.5114C0.00128516 13.6091 0.890859 14.4987 1.98857 14.5H12.0114C13.1091 14.4987 13.9987 13.6091 14 12.5114V9.83336C14 9.35008 13.6082 8.95833 13.125 8.95833Z" fill="#374957"/>
</svg>
