<svg width="14" height="15" viewBox="0 0 14 15" fill="none" xmlns="http://www.w3.org/2000/svg">
<g clip-path="url(#clip0_2053_14)">
<path d="M11.1545 11.2298L13.4405 8.94371C13.8118 8.5547 14.0189 8.03766 14.0189 7.49996C14.0189 6.96225 13.8118 6.44521 13.4405 6.05621L11.1545 3.77012C10.9904 3.60597 10.7678 3.51373 10.5357 3.51367C10.3037 3.51362 10.0811 3.60576 9.91691 3.76983C9.75277 3.9339 9.66052 4.15646 9.66047 4.38854C9.66041 4.62062 9.75255 4.84323 9.91662 5.00737L11.5383 6.62962L0.892456 6.64304C0.660392 6.64304 0.437832 6.73523 0.273738 6.89932C0.109643 7.06342 0.0174561 7.28598 0.0174561 7.51804C0.0174561 7.7501 0.109643 7.97266 0.273738 8.13676C0.437832 8.30085 0.660392 8.39304 0.892456 8.39304L11.5272 8.37962L9.91662 9.99254C9.75723 10.1576 9.66904 10.3786 9.67103 10.608C9.67303 10.8374 9.76505 11.0569 9.92728 11.2191C10.0895 11.3814 10.309 11.4734 10.5384 11.4754C10.7678 11.4774 10.9888 11.3892 11.1539 11.2298H11.1545Z" fill="#F7F2E9"/>
</g>
<defs>
<clipPath id="clip0_2053_14">
<rect width="14" height="14" fill="white" transform="translate(0 0.5)"/>
</clipPath>
</defs>
</svg>
