<svg width="14" height="15" viewBox="0 0 14 15" fill="none" xmlns="http://www.w3.org/2000/svg">
<g clip-path="url(#clip0_2190_357)">
<path d="M12.0749 8.68125C11.686 8.31072 11.1695 8.10403 10.6323 8.10403C10.0952 8.10403 9.57862 8.31072 9.18974 8.68125L8.95115 8.91458C7.46019 8.23489 6.26652 7.03728 5.59174 5.54408L5.81866 5.31425C6.19452 4.93373 6.40718 4.42163 6.41143 3.88679C6.41568 3.35194 6.21118 2.83653 5.84141 2.45008L4.58549 1.09792C4.20681 0.719392 3.69459 0.504774 3.15918 0.500301C2.62377 0.495827 2.10803 0.701856 1.72308 1.074C1.72308 1.074 1.10125 1.6165 1.08666 1.6305C-3.52166 6.4535 8.04115 18.0222 12.87 13.4138C12.884 13.3993 13.4265 12.7774 13.4265 12.7774C13.8002 12.3872 14.0049 11.8653 13.996 11.3251C13.9872 10.7849 13.7655 10.27 13.3792 9.89225L12.0749 8.68125ZM12.1665 11.5641C12.1519 11.5781 11.6129 12.1958 11.6129 12.1958C8.54865 14.9515 -0.531502 6.40683 2.30408 2.89167C2.30408 2.89167 2.92183 2.35267 2.93583 2.33808C2.98641 2.28673 3.05422 2.25593 3.12618 2.25162C3.19814 2.24731 3.26914 2.2698 3.32549 2.31475L4.58141 3.664C4.61016 3.69082 4.633 3.72336 4.64845 3.75952C4.66389 3.79568 4.67162 3.83467 4.67113 3.87399C4.67063 3.91331 4.66193 3.9521 4.64557 3.98786C4.62922 4.02362 4.60558 4.05557 4.57616 4.08167L3.92924 4.7385C3.80992 4.85989 3.7286 5.01346 3.69523 5.18037C3.66187 5.34729 3.67792 5.52032 3.74141 5.67825C4.1761 6.84195 4.85591 7.89858 5.73475 8.77652C6.6136 9.65446 7.67093 10.3332 8.83507 10.7667C8.99179 10.8266 9.16244 10.8402 9.32668 10.8059C9.49092 10.7715 9.64182 10.6907 9.7614 10.573L10.4229 9.92083C10.5921 9.796 10.6802 9.79717 10.8592 9.94417L12.1647 11.154C12.2187 11.2086 12.249 11.2823 12.249 11.359C12.249 11.4358 12.2187 11.5095 12.1647 11.5641H12.1665ZM13.9999 1.08333V3.69317C13.9999 3.80852 13.9656 3.92128 13.9015 4.01718C13.8374 4.11309 13.7464 4.18784 13.6398 4.23198C13.5332 4.27612 13.4159 4.28767 13.3028 4.26517C13.1897 4.24268 13.0857 4.18714 13.0041 4.10558L12.324 3.42542L10.2421 5.49508C10.0767 5.65413 9.85543 5.74184 9.62598 5.73932C9.39654 5.7368 9.17727 5.64426 9.01541 5.48163C8.85354 5.319 8.76203 5.09929 8.7606 4.86984C8.75916 4.64039 8.84792 4.41956 9.00774 4.25492L11.0867 2.18817L10.3943 1.49575C10.3128 1.41417 10.2572 1.31024 10.2347 1.1971C10.2122 1.08396 10.2238 0.966693 10.2679 0.860118C10.3121 0.753543 10.3868 0.662448 10.4827 0.598349C10.5786 0.53425 10.6914 0.500025 10.8067 0.5H13.4166C13.5713 0.5 13.7196 0.561458 13.829 0.670854C13.9384 0.780251 13.9999 0.928624 13.9999 1.08333Z" fill="#F7F2E9"/>
</g>
<defs>
<clipPath id="clip0_2190_357">
<rect width="14" height="14" fill="white" transform="translate(0 0.5)"/>
</clipPath>
</defs>
</svg>
