<svg width="14" height="15" viewBox="0 0 14 15" fill="none" xmlns="http://www.w3.org/2000/svg">
<g clip-path="url(#clip0_2070_180)">
<path d="M10.7917 1.08325H3.20833C2.35771 1.08418 1.5422 1.4225 0.940722 2.02397C0.339244 2.62545 0.000926432 3.44097 0 4.29159L0 10.7083C0.000926432 11.5589 0.339244 12.3744 0.940722 12.9759C1.5422 13.5773 2.35771 13.9157 3.20833 13.9166H10.7917C11.6423 13.9157 12.4578 13.5773 13.0593 12.9759C13.6608 12.3744 13.9991 11.5589 14 10.7083V4.29159C13.9991 3.44097 13.6608 2.62545 13.0593 2.02397C12.4578 1.4225 11.6423 1.08418 10.7917 1.08325ZM10.7917 2.83325C11.1454 2.83443 11.4865 2.96541 11.7501 3.20134L7.95842 6.993C7.70088 7.23897 7.35846 7.37623 7.00233 7.37623C6.64621 7.37623 6.30378 7.23897 6.04625 6.993L2.25458 3.20134C2.51699 2.96647 2.85617 2.83557 3.20833 2.83325H10.7917ZM10.7917 12.1666H3.20833C2.82156 12.1666 2.45063 12.0129 2.17714 11.7395C1.90365 11.466 1.75 11.095 1.75 10.7083V5.1765L4.80608 8.23259C5.09411 8.52074 5.43608 8.74932 5.81247 8.90527C6.18886 9.06122 6.59229 9.14149 6.99971 9.14149C7.40713 9.14149 7.81055 9.06122 8.18694 8.90527C8.56333 8.74932 8.90531 8.52074 9.19333 8.23259L12.25 5.1765V10.7083C12.25 11.095 12.0964 11.466 11.8229 11.7395C11.5494 12.0129 11.1784 12.1666 10.7917 12.1666Z" fill="#F7F2E9"/>
</g>
<defs>
<clipPath id="clip0_2070_180">
<rect width="14" height="14" fill="white" transform="translate(0 0.5)"/>
</clipPath>
</defs>
</svg>
